<svg xmlns="http://www.w3.org/2000/svg" viewBox="0 0 100 100" width="32" height="32">
  <circle cx="50" cy="50" r="50" fill="#0a1628"/>
  <g transform="translate(15, 15) scale(0.07)">
    <path fill="#d4a853" d="M463.09 7.54c16.18-2.17 32.57-1.83 48.86-1.73 8.99.9 18.05.11 27.03.99 3.64.65 7.33.89 11.02 1.04 4.03.62 8.26.08 12.16 1.52 4.9.44 9.89.2 14.69 1.45 4.15 1.18 8.52.61 12.72 1.52 7.85 1.92 16.01 2.53 23.78 4.84 3.02.57 6.17.82 9.02 2.08 2.07.31 4.16.51 6.25.68.65.48 1.3.96 1.96 1.44 6.87.8 13.21 3.96 20.1 4.66.65.44 1.3.88 1.96 1.32 6.34 1.26 12.45 3.45 18.44 5.84 8.8 2.94 17.49 6.19 25.95 10.01 4.83 1.49 9.31 3.89 13.87 6.03 3.07 1.26 6.12 2.59 9.16 3.94 7.79 3.77 15.47 7.78 22.98 12.08 2.6 1.33 5.2 2.68 7.78 4.07 24.36 13.9 47.6 29.8 69.21 47.69 3.93 3.75 8.68 6.52 12.46 10.45 4.93 5.07 10.78 9.13 15.84 14.07 9.65 9.4 19.28 18.85 27.93 29.19 4.3 5.35 9.81 9.62 13.52 15.45 12.86 15.5 24.68 31.85 35.41 48.9 4.03 6.62 8.28 13.09 12.06 19.86 2.61 5.06 5.36 10.05 8.01 15.09 2.68 5.33 5.57 10.55 7.94 16.03 1.8 3.95 3.81 7.8 5.67 11.73 1.43 3.11 2.79 6.26 3.84 9.52.47.69.96 1.39 1.46 2.09.11.62.33 1.87.44 2.49.82 1.66 1.54 3.37 2.3 5.07.65 1.66 1.25 3.34 1.89 5.02 1.55 3.68 3.05 7.4 3.87 11.33.38.64.78 1.29 1.19 1.94 1.44 5.31 3.64 10.39 4.95 15.75.8 2.34 1.37 4.75 1.96 7.16.39.57.79 1.15 1.2 1.74 1.13 7.36 3.58 14.43 5.17 21.7 3.02 13.3 6.05 26.63 7.69 40.18 1.07 5.09.94 10.35 2.21 15.42 1.71 7.52.53 15.36 2.27 22.85 1.44 14.3 1.52 28.62.48 42.95-.17 7.34.35 14.73-.52 22.05-.13 4.86.19 9.78-.83 14.58-1.13 5.36-.15 10.93-1.52 16.27-1.35 4.77-1.01 9.78-1.81 14.65-1.58 4.75-1.14 9.85-2.47 14.65-2.69 17.29-7.34 34.21-11.4 51.22-1.57 4.29-2.86 8.68-4.03 13.1-2.27 6.83-4.38 13.72-6.86 20.49-2.17 6.16-4.81 12.16-7.04 18.31-4.1 10.03-8.38 19.97-12.96 29.79-1.32 2.67-2.68 5.33-4.07 7.97-.66 1.34-1.3 2.69-1.97 4.03-.68 1.31-1.35 2.63-2.04 3.94-1.3 2.38-2.62 4.75-3.96 7.11-14.56 27.87-33.06 53.48-52.84 77.84-5.94 5.45-10.09 12.48-15.96 17.98-9.28 9.39-18.63 18.7-27.96 28.04-5.82 5.9-12.54 10.8-18.57 16.48-27.21 22.95-56.96 42.96-88.57 59.35-1.61.83-3.22 1.65-4.82 2.49-4.02 2.03-8.06 4.02-12.17 5.84-7.24 3.58-14.64 6.78-21.95 10.2-.91.26-1.82.54-2.71.84-3.25 1.55-6.58 2.92-10.04 3.92-.64.36-1.27.74-1.88 1.13-5.57 1.7-10.94 3.95-16.42 5.91-2.04.61-4.07 1.22-6.04 2-.53.15-.84.73-1.15 1.11-2.23.58-4.54 1.13-6.77 1.96-2.1.69-4.2 1.36-6.22 2.25-1.52.18-3.03.35-4.53.53-.62.48-1.23.98-1.82 1.49-3.14.46-6.27.96-9.3 1.92-11.56 2.85-23.22 5.28-34.94 7.35-5.05 1.32-10.39 1.03-15.35 2.7-10.37.59-20.52 2.96-30.92 3.16-8.21 1.58-16.61 1.16-24.92 1.22-15 .01-30 .01-45 .01-4.49-.02-8.99.05-13.44-.52-7.43-1.51-15.18-.58-22.54-2.48-8.54-.92-16.96-2.44-25.45-3.64-4.34-1.09-8.79-1.71-13.25-1.94.77-.64 1.58-1.23 2.37-1.85-2.28-.22-4.55.16-6.81.23-9.19-1.54-18-5.11-27.29-6.11-.65-.53-1.29-1.04-1.93-1.54-1.56-.16-3.11-.31-4.65-.47-6.19-2.45-12.63-4.26-18.99-6.22-3.63-1.45-7.32-2.72-10.99-4.04-4.53-1.65-9.14-3.08-13.59-4.94-7.33-2.52-14.29-5.95-21.36-9.08-4.36-1.96-8.69-3.97-13.09-5.82-3.98-2.08-7.94-4.17-11.92-6.23-3.73-1.96-7.45-3.93-11.23-5.78-25.82-14.94-50.84-31.39-74.22-49.93-4.23-4.16-9.48-7.08-13.64-11.33-5.96-5.76-12.7-10.67-18.48-16.63-7.39-7.59-15.39-14.61-21.96-22.95-3.9-5.07-8.68-9.35-12.9-14.12-5.49-7.1-11.23-14.01-16.82-21.03-6.75-9.7-14.03-19.05-20.25-29.12-5.2-8.38-10.78-16.54-15.45-25.24-5.38-9-9.7-18.57-14.4-27.94-1.96-4.37-4.02-8.69-6.02-13.05-1.99-4.69-3.77-9.49-6.27-13.94-.08-.66-.26-1.99-.34-2.65-.47-.68-.93-1.35-1.4-2.01-.6-1.88-1.25-3.74-2.07-5.53-.2-1.03-.39-2.04-.58-3.05-.34-.31-1.03-.93-1.37-1.25-1.81-7.54-5.39-14.56-6.79-22.21-.42-.68-.84-1.34-1.26-2-1.94-4.5-3.36-8.89-4.91-13.21-3.56-13.76-6.8-27.61-9.92-41.46-1.79-12.46-4.4-24.78-5.22-37.35-1.71-5.94-1.42-12.19-1.94-18.28.21-6.73-1.61-13.3-1.37-20.02.04-18.07-.29-36.15.19-54.21 1.32-4.86.83-9.93 1.57-14.86-.25-6.75 1.52-13.28 2-19.97.32-6.06 2.31-11.87 2.56-17.94 1.77-4.56 1.34-9.57 2.64-14.25 1.92-8.21 3.44-16.49 5.53-24.66.93-2.57 1.39-5.28 1.92-7.95 2.44-8.88 5.65-17.53 7.95-26.44.38-.69.75-1.37 1.13-2.05 1.03-3.83 2.42-7.54 3.94-11.19 2.55-7.98 5.55-15.8 9.03-23.42 1.4-2.99 2.75-6.01 3.97-9.08 4-8.02 7.65-16.22 11.9-24.12.71-1.28 1.4-2.58 2.09-3.87 1.53-2.65 2.98-5.34 4.45-8.02 5.7-11.17 12.84-21.5 19.62-31.02 1.36-1.96 2.72-3.9 4-5.9 9.02-14.56 19.94-28.47 31.33-41.96 3.86-5.39 8.72-9.91 13.28-14.68 6.4-7.24 13.27-14.03 20-21.96 5.41-4.91 10.92-9.72 16.08-14.9 10.21-8.57 20.42-17.13 31.13-25.08 15.48-11.43 31.72-21.78 48.13-31.82 3.97-2.46 8.15-4.56 12.32-6.68 5.22-2.89 10.49-5.72 15.88-8.3 2.41-1.14 4.8-2.33 7.2-3.49 2.94-1.38 5.88-2.74 8.89-3.97 4.59-2.1 9.27-4.01 13.92-5.97 1.65-.74 3.33-1.42 5-2.12 1.67-.7 3.37-1.33 5.07-1.98 3.64-1.37 7.3-2.67 10.95-4.01 3.66-1.35 7.37-2.56 11.01-3.98 1.97-.77 4-1.39 6.02-2.04 6.95-2.17 13.96-4.17 21.02-5.97 2.53-1 5.22-1.44 7.89-1.95.62-.41 1.25-.83 1.88-1.24 16.48-2.67 32.68-7.29 49.35-8.94 4.89-1.55 10.08-1.11 15.1-1.84 5.74-1.99 11.87-1.25 17.81-1.64z"/>
  </g>
</svg>
