<?xml version="1.0" encoding="UTF-8" ?>
<!DOCTYPE svg PUBLIC "-//W3C//DTD SVG 1.1//EN" "http://www.w3.org/Graphics/SVG/1.1/DTD/svg11.dtd">
<svg width="1010pt" height="998pt" viewBox="0 0 1010 998" version="1.1" xmlns="http://www.w3.org/2000/svg">
<path fill="#cdaa5d" stroke="#cdaa5d" stroke-width="0.09375" opacity="1.00" d=" M 467.20 6.62 C 472.80 6.29 478.43 6.60 484.00 5.84 C 492.29 6.77 500.71 4.76 509.02 6.15 C 510.96 5.86 512.92 5.74 514.89 5.75 C 523.13 6.78 531.52 6.18 539.82 6.57 L 539.18 7.40 C 546.68 7.35 554.12 8.42 561.62 8.54 L 561.35 9.57 C 562.46 9.54 563.58 9.51 564.71 9.47 L 564.50 10.24 C 568.91 10.19 573.31 10.29 577.72 10.54 C 577.61 10.77 577.41 11.22 577.31 11.45 C 582.45 11.48 587.55 12.06 592.65 12.64 L 592.22 13.38 C 593.83 13.60 595.44 13.84 597.06 14.15 C 599.22 14.30 601.40 14.45 603.57 14.60 L 603.45 15.85 C 603.95 15.70 604.96 15.40 605.46 15.25 L 605.53 16.23 C 607.92 16.25 610.31 16.33 612.71 16.41 C 612.64 16.67 612.51 17.19 612.44 17.46 C 614.11 17.56 615.80 17.66 617.49 17.74 L 617.53 18.10 C 620.77 18.40 623.83 19.58 626.99 20.29 C 628.17 20.37 629.34 20.45 630.53 20.54 L 630.31 21.43 C 632.32 21.66 634.33 22.01 636.31 22.46 C 636.60 22.36 637.17 22.16 637.46 22.06 L 637.41 23.32 C 639.69 23.60 641.96 23.99 644.22 24.51 C 644.51 24.48 645.09 24.42 645.38 24.39 L 645.29 25.45 C 647.23 25.69 649.19 26.01 651.14 26.33 L 651.73 26.18 L 651.59 27.43 C 653.85 27.62 656.13 27.77 658.42 27.87 C 658.41 28.22 658.40 28.93 658.39 29.28 C 660.32 29.58 662.27 29.93 664.18 30.43 C 664.48 30.41 665.09 30.36 665.39 30.34 L 665.35 31.60 C 667.01 31.69 668.69 31.78 670.37 31.85 C 670.37 32.26 670.37 33.06 670.37 33.47 C 671.83 33.60 673.31 33.75 674.79 33.91 C 676.19 35.88 678.62 35.72 680.76 36.04 C 682.01 37.13 683.50 37.83 685.11 38.27 C 686.79 38.91 688.41 39.68 690.05 40.43 C 690.41 40.35 691.15 40.19 691.51 40.11 L 691.52 41.23 C 693.53 41.64 695.50 42.30 697.19 43.52 C 697.33 43.55 697.60 43.61 697.73 43.64 C 699.01 43.97 700.30 44.30 701.61 44.62 L 701.51 45.40 C 702.12 45.53 703.33 45.80 703.94 45.94 C 706.02 47.14 708.23 48.10 710.56 48.76 L 710.57 49.87 C 711.00 49.74 711.88 49.48 712.32 49.35 C 712.43 49.67 712.64 50.32 712.75 50.65 L 713.88 50.32 C 715.58 51.54 717.56 52.23 719.59 52.73 L 719.49 53.30 C 721.60 53.81 723.66 54.57 725.22 56.16 C 725.81 56.22 726.99 56.35 727.58 56.41 L 727.51 57.18 C 730.24 58.27 732.84 59.67 735.54 60.85 L 735.33 61.36 C 736.70 61.86 738.07 62.36 739.47 62.83 L 739.13 63.33 C 740.31 63.79 741.50 64.24 742.70 64.70 L 742.52 65.77 C 742.91 65.71 743.67 65.57 744.05 65.51 C 744.64 65.83 745.82 66.46 746.41 66.78 L 746.61 67.87 C 746.98 67.76 747.71 67.52 748.08 67.41 C 749.06 68.21 750.05 69.02 751.06 69.81 C 752.60 70.29 754.01 71.07 755.22 72.14 C 755.79 72.27 756.91 72.51 757.47 72.64 L 757.39 73.32 C 758.92 74.12 760.42 74.99 761.94 75.83 C 763.69 76.99 765.49 78.07 767.42 78.92 L 767.49 79.15 C 769.06 80.22 770.56 81.40 772.05 82.60 L 773.39 82.17 L 773.25 83.07 C 774.62 83.86 775.90 84.76 777.17 85.73 C 777.38 85.65 777.80 85.48 778.01 85.40 C 779.70 86.85 781.39 88.30 783.06 89.79 L 783.87 89.44 C 785.36 90.64 786.85 91.83 788.41 92.96 L 788.31 93.64 L 789.57 93.39 L 789.61 94.63 C 790.06 94.53 790.96 94.34 791.41 94.24 L 791.32 95.15 C 793.07 96.35 794.78 97.63 796.57 98.80 L 796.68 99.73 C 797.02 99.64 797.70 99.47 798.04 99.38 C 800.64 101.80 803.36 104.08 806.18 106.24 C 806.41 106.26 806.85 106.30 807.07 106.32 C 809.64 108.86 812.49 111.06 815.27 113.36 C 815.47 113.36 815.88 113.37 816.08 113.38 C 818.87 115.87 821.48 118.59 824.48 120.85 L 824.48 121.28 C 825.55 121.76 826.63 122.25 827.73 122.73 L 827.53 123.09 C 831.63 126.29 835.13 130.16 838.94 133.70 C 839.17 133.69 839.63 133.67 839.86 133.67 C 840.81 134.71 841.77 135.74 842.77 136.75 L 843.13 136.49 C 843.50 136.85 844.23 137.56 844.60 137.91 L 844.38 138.10 C 844.76 138.48 845.52 139.25 845.90 139.63 L 846.59 139.30 L 846.42 140.56 L 847.62 140.34 L 847.63 141.06 C 855.00 147.89 862.18 154.98 868.91 162.45 L 869.65 162.37 L 869.34 163.57 L 870.53 163.52 C 870.58 163.83 870.67 164.46 870.71 164.77 C 872.65 166.49 874.42 168.38 875.99 170.45 L 876.66 170.46 L 876.34 171.66 L 877.07 171.57 C 880.07 175.43 883.83 178.59 886.99 182.31 L 887.67 182.35 L 887.43 183.53 L 888.55 183.56 C 888.54 183.89 888.52 184.53 888.51 184.85 C 890.76 187.65 893.19 190.29 895.65 192.92 C 895.67 193.15 895.72 193.62 895.75 193.85 C 898.10 196.76 900.64 199.52 902.86 202.54 L 903.75 202.67 C 903.66 203.01 903.47 203.69 903.38 204.03 C 907.48 207.89 909.81 213.13 913.80 217.08 C 913.70 217.31 913.49 217.79 913.38 218.02 C 914.80 219.69 916.25 221.34 917.73 222.96 C 917.68 223.32 917.57 224.02 917.52 224.38 L 918.63 224.47 L 918.36 225.72 L 919.17 225.53 C 921.02 228.53 922.90 231.52 924.74 234.54 L 925.06 234.59 C 925.64 235.80 926.28 237.02 927.09 238.11 C 927.66 239.21 928.32 240.28 928.84 241.42 L 929.23 241.48 C 931.84 245.80 934.62 250.02 936.82 254.57 L 937.21 254.46 C 938.02 256.49 939.02 258.44 939.98 260.42 L 940.56 260.55 L 940.26 261.79 L 941.15 261.64 C 941.46 262.25 942.08 263.46 942.39 264.07 C 942.36 264.30 942.30 264.75 942.27 264.98 C 943.54 266.20 944.39 267.75 944.64 269.51 L 945.46 269.53 C 945.82 270.87 946.24 272.21 946.61 273.56 L 947.41 273.45 C 947.83 274.84 948.28 276.23 948.72 277.64 L 949.48 277.45 C 949.87 278.81 950.32 280.17 950.71 281.53 L 951.59 281.45 C 951.89 282.81 952.28 284.18 952.57 285.56 L 953.75 285.63 L 953.39 287.33 L 954.52 287.59 C 954.47 287.94 954.37 288.64 954.32 288.99 C 956.53 292.13 957.51 295.93 959.66 299.11 C 959.61 299.44 959.52 300.09 959.47 300.42 L 960.56 300.68 C 960.46 301.14 960.25 302.08 960.15 302.54 L 961.20 302.50 C 961.56 303.72 961.95 304.93 962.36 306.15 C 962.37 306.33 962.39 306.70 962.40 306.88 C 963.14 308.25 963.89 309.64 964.59 311.05 C 964.49 311.39 964.30 312.07 964.20 312.42 L 965.39 312.40 C 965.76 314.11 966.21 315.81 966.60 317.53 L 967.33 317.43 C 967.67 318.69 968.03 319.95 968.41 321.21 C 968.37 321.52 968.28 322.13 968.24 322.43 L 969.37 322.37 C 969.72 324.21 970.15 326.05 970.55 327.89 L 971.27 327.43 C 971.59 329.01 971.95 330.59 972.35 332.18 C 972.36 332.34 972.39 332.66 972.41 332.82 C 973.33 334.50 973.96 336.34 974.59 338.16 C 974.50 338.48 974.33 339.11 974.25 339.42 L 975.60 339.37 C 975.65 340.41 975.74 342.49 975.78 343.53 L 976.65 343.14 C 976.59 343.73 976.46 344.89 976.40 345.47 L 977.40 345.27 C 977.71 346.94 978.10 348.62 978.48 350.30 C 978.37 350.58 978.17 351.16 978.07 351.44 L 979.29 351.40 C 979.61 353.37 980.03 355.34 980.49 357.30 C 980.43 357.58 980.31 358.14 980.25 358.42 L 981.58 358.36 C 981.64 360.05 981.71 361.75 981.79 363.45 L 982.77 363.58 C 982.61 364.05 982.31 365.00 982.15 365.47 L 983.56 365.38 C 983.64 367.42 983.72 369.46 983.78 371.51 L 984.74 371.39 C 984.62 371.91 984.39 372.95 984.27 373.47 L 985.51 373.32 C 985.61 374.83 985.73 376.35 985.88 377.87 C 986.18 379.09 986.47 380.33 986.75 381.57 C 986.95 381.50 987.36 381.36 987.56 381.29 C 987.62 383.35 987.69 385.42 987.75 387.49 L 988.78 387.59 C 988.60 388.08 988.24 389.05 988.06 389.53 L 989.44 389.39 C 989.62 392.07 989.75 394.76 989.80 397.45 L 990.89 397.58 C 990.70 398.04 990.31 398.96 990.11 399.42 C 990.46 399.41 991.15 399.38 991.50 399.37 C 991.63 402.07 991.74 404.77 991.79 407.48 L 992.50 407.28 C 992.50 408.10 992.51 409.72 992.51 410.54 C 992.78 410.48 993.31 410.38 993.57 410.33 C 993.67 413.37 993.75 416.43 993.76 419.48 L 994.54 419.37 C 994.48 420.45 994.44 421.54 994.41 422.63 L 995.44 422.41 C 995.76 427.19 995.84 432.00 995.31 436.79 C 995.53 435.28 995.95 432.28 996.16 430.78 C 996.25 432.27 996.43 435.25 996.51 436.74 C 996.74 436.64 997.19 436.43 997.42 436.32 C 997.84 444.43 998.56 452.52 998.68 460.65 L 999.52 460.13 C 999.91 476.41 999.71 492.69 999.77 508.98 C 999.67 519.54 999.96 530.12 999.31 540.67 L 998.48 540.11 C 998.31 544.90 998.19 549.69 998.23 554.48 L 997.41 554.27 C 997.44 555.40 997.49 556.53 997.55 557.67 L 996.55 557.31 C 996.43 560.04 996.30 562.77 996.28 565.52 L 995.74 565.51 C 995.68 568.21 995.51 570.91 995.36 573.62 L 994.47 573.16 C 994.34 576.25 994.21 579.35 994.23 582.45 L 993.50 582.41 C 993.51 583.21 993.53 584.82 993.54 585.62 C 993.28 585.54 992.76 585.38 992.49 585.30 C 992.37 588.00 992.25 590.70 992.23 593.41 L 991.86 593.48 C 990.78 597.26 990.07 601.12 989.48 605.01 C 989.52 605.38 989.59 606.11 989.63 606.48 L 988.43 606.30 C 988.33 608.36 988.25 610.43 988.21 612.51 L 987.14 612.57 C 987.34 613.04 987.73 614.00 987.93 614.47 L 986.51 614.40 C 986.35 616.74 986.23 619.09 986.18 621.45 L 985.19 621.46 C 985.32 621.95 985.56 622.93 985.69 623.42 L 984.37 623.32 C 984.29 625.36 984.24 627.41 984.22 629.47 L 983.22 629.47 C 983.34 629.95 983.58 630.93 983.70 631.41 L 982.57 631.30 C 982.23 633.70 981.77 636.09 981.37 638.48 L 980.57 638.27 C 980.31 639.52 980.04 640.78 979.76 642.04 C 979.70 642.70 979.58 644.01 979.52 644.67 L 978.25 644.59 C 978.30 644.87 978.42 645.45 978.48 645.74 C 978.04 647.66 977.63 649.59 977.30 651.55 L 976.14 651.51 C 976.19 651.82 976.31 652.42 976.37 652.73 C 976.00 654.37 975.61 656.01 975.37 657.70 L 974.38 657.55 C 974.40 657.92 974.46 658.66 974.49 659.04 C 974.08 660.56 973.68 662.10 973.32 663.64 L 972.21 663.58 C 972.33 664.03 972.56 664.93 972.68 665.38 L 971.73 665.44 C 971.66 666.82 971.60 668.21 971.56 669.60 L 970.19 669.55 C 970.28 669.88 970.45 670.55 970.54 670.88 C 969.42 673.79 968.16 676.64 967.31 679.64 L 966.71 679.51 C 966.31 681.91 965.61 684.28 964.14 686.26 C 963.78 688.03 963.38 689.81 962.10 691.18 C 961.73 692.97 961.30 694.76 960.13 696.22 C 959.71 697.95 959.28 699.70 958.22 701.17 C 957.68 702.55 957.09 703.92 956.41 705.25 C 956.46 705.43 956.56 705.81 956.60 705.99 C 955.73 707.41 954.85 708.82 953.94 710.22 C 953.74 711.30 953.55 712.40 953.39 713.51 L 952.66 713.36 C 952.10 715.48 951.36 717.57 949.84 719.21 C 949.78 719.81 949.66 720.99 949.59 721.59 L 948.66 721.52 C 948.23 722.87 947.78 724.20 947.38 725.57 L 946.72 725.52 C 946.43 726.15 945.86 727.41 945.57 728.04 C 945.60 728.27 945.66 728.72 945.69 728.95 C 944.26 730.13 943.60 731.77 943.35 733.57 L 942.75 733.55 C 942.31 734.42 941.87 735.30 941.43 736.18 L 941.84 737.40 L 940.67 737.26 C 940.27 738.36 939.87 739.47 939.48 740.59 C 939.32 740.60 939.00 740.60 938.83 740.61 C 938.39 742.36 937.43 743.88 936.20 745.19 C 936.30 745.33 936.50 745.60 936.60 745.73 C 936.26 746.39 935.59 747.71 935.25 748.36 L 934.68 748.40 C 934.24 750.27 933.36 751.94 931.81 753.12 C 931.72 753.72 931.54 754.91 931.45 755.51 L 930.91 755.36 C 930.05 756.64 929.14 757.89 928.25 759.15 C 928.32 759.34 928.46 759.72 928.53 759.91 C 927.12 761.57 925.89 763.38 925.04 765.40 L 924.83 765.46 C 923.77 767.02 922.63 768.52 921.49 770.02 C 921.57 770.25 921.74 770.73 921.82 770.97 C 920.32 772.60 918.88 774.28 917.46 775.97 C 917.55 776.22 917.72 776.71 917.81 776.96 C 916.32 778.58 914.88 780.26 913.47 781.95 C 913.54 782.21 913.70 782.74 913.77 783.00 C 909.78 786.90 907.47 792.12 903.36 795.93 C 903.46 796.28 903.66 796.98 903.76 797.33 L 902.87 797.47 C 901.23 799.79 899.32 801.90 897.38 803.97 C 897.43 804.31 897.54 804.99 897.59 805.34 C 897.10 805.42 896.13 805.58 895.64 805.66 C 895.66 806.01 895.70 806.71 895.73 807.06 C 894.09 808.77 892.50 810.54 891.10 812.45 L 890.36 812.58 C 890.36 812.89 890.35 813.52 890.34 813.83 C 886.99 818.39 882.54 821.99 879.11 826.48 L 878.36 826.58 C 878.35 826.88 878.33 827.50 878.32 827.80 C 877.52 828.62 876.74 829.46 875.98 830.32 L 875.44 830.46 L 875.66 831.63 L 874.95 831.62 C 869.11 838.21 862.66 844.23 856.52 850.54 C 849.48 857.27 843.02 864.61 835.58 870.90 L 835.64 871.65 L 834.44 871.40 L 834.46 872.58 C 834.13 872.59 833.46 872.62 833.13 872.63 C 832.05 873.85 830.93 875.05 829.86 876.29 C 829.63 876.30 829.17 876.33 828.94 876.34 C 825.40 879.86 821.65 883.15 817.78 886.29 C 817.47 886.31 816.84 886.33 816.53 886.34 L 816.61 887.09 C 813.91 889.06 811.49 891.37 809.09 893.67 C 808.86 893.69 808.41 893.73 808.19 893.75 C 806.11 895.43 803.98 897.05 801.97 898.80 C 801.57 899.06 800.77 899.58 800.37 899.84 L 800.45 900.59 C 799.99 900.51 799.08 900.34 798.63 900.26 L 798.51 901.18 C 796.77 902.37 795.09 903.65 793.36 904.85 L 793.59 905.23 C 792.48 905.70 791.37 906.19 790.28 906.69 L 790.40 907.07 C 788.88 908.18 787.41 909.35 785.97 910.55 C 785.63 910.45 784.97 910.25 784.64 910.15 L 784.49 911.07 C 782.94 912.17 781.45 913.34 780.00 914.55 C 779.65 914.47 778.97 914.32 778.63 914.24 L 778.61 915.37 C 778.00 915.59 776.78 916.04 776.17 916.26 C 775.96 916.56 775.56 917.15 775.36 917.45 C 774.34 917.83 773.33 918.22 772.34 918.62 L 772.55 919.03 C 771.27 919.86 770.02 920.75 768.83 921.70 C 768.63 921.64 768.24 921.51 768.05 921.45 C 766.55 922.61 765.06 923.78 763.50 924.86 L 763.43 925.22 C 761.54 925.58 760.05 926.71 758.87 928.20 C 758.26 928.24 757.03 928.33 756.42 928.37 L 756.56 929.26 C 755.44 929.70 754.32 930.14 753.22 930.60 L 753.52 931.22 C 752.15 931.62 750.79 932.03 749.46 932.48 L 749.50 933.53 C 749.03 933.57 748.08 933.65 747.60 933.69 C 744.97 935.78 741.92 937.24 738.93 938.72 C 737.53 939.59 736.02 940.25 734.48 940.82 L 734.58 941.44 C 733.24 941.86 731.88 942.24 730.55 942.66 L 730.47 943.70 C 730.14 943.68 729.48 943.64 729.15 943.62 C 728.51 943.93 727.23 944.53 726.59 944.83 L 726.50 945.76 C 726.17 945.73 725.50 945.67 725.17 945.64 C 724.52 945.93 723.22 946.51 722.57 946.79 L 722.66 947.50 C 721.28 947.87 719.88 948.19 718.51 948.55 C 718.49 948.73 718.45 949.08 718.42 949.25 C 716.40 949.66 714.52 950.51 712.89 951.77 C 711.48 952.34 710.14 953.03 708.83 953.78 C 707.29 954.26 705.73 954.76 704.72 956.10 C 703.58 956.18 702.45 956.28 701.34 956.39 L 701.49 957.24 C 699.79 957.69 698.12 958.19 696.43 958.66 L 696.53 959.36 C 695.08 959.78 693.66 960.25 692.25 960.74 C 688.90 962.61 685.19 963.75 681.49 964.69 L 681.73 965.32 C 680.41 965.66 679.10 966.02 677.80 966.42 C 677.48 966.35 676.86 966.21 676.55 966.14 L 676.54 967.30 C 673.87 967.87 671.27 968.71 668.85 969.97 C 667.98 970.13 666.24 970.44 665.37 970.60 L 665.40 971.85 C 664.95 971.69 664.07 971.39 663.62 971.24 C 663.58 971.49 663.48 971.99 663.43 972.23 C 662.43 972.28 660.42 972.37 659.42 972.41 L 659.41 973.87 C 658.97 973.71 658.08 973.40 657.63 973.25 C 657.58 973.49 657.47 973.98 657.41 974.23 C 655.75 974.29 654.09 974.37 652.44 974.48 L 652.51 975.81 C 652.21 975.77 651.60 975.68 651.30 975.64 C 649.65 976.00 647.98 976.33 646.34 976.65 L 646.44 977.78 C 646.15 977.72 645.57 977.60 645.28 977.54 C 643.33 977.95 641.37 978.33 639.43 978.68 L 639.49 979.88 C 638.99 979.73 637.99 979.44 637.49 979.30 L 637.53 980.22 C 635.45 980.26 633.38 980.34 631.33 980.45 C 631.39 980.68 631.52 981.14 631.59 981.38 C 628.81 981.73 626.06 982.25 623.29 982.61 C 623.36 982.78 623.51 983.11 623.58 983.28 C 622.31 983.50 621.05 983.77 619.80 984.07 C 617.96 984.25 616.12 984.39 614.29 984.54 C 614.37 984.78 614.53 985.27 614.61 985.52 C 613.81 985.51 612.20 985.51 611.40 985.51 L 611.45 986.22 C 609.07 986.26 606.69 986.38 604.32 986.50 L 604.68 987.30 C 603.37 987.52 602.06 987.76 600.78 988.09 C 598.60 988.24 596.42 988.35 594.26 988.46 L 594.56 989.39 C 593.67 989.42 592.79 989.47 591.91 989.54 C 588.39 990.26 584.81 990.48 581.23 990.52 L 581.65 991.47 C 580.52 991.44 579.41 991.42 578.30 991.41 L 578.43 992.23 C 574.18 992.19 569.94 992.23 565.71 992.59 C 565.98 992.86 566.51 993.40 566.78 993.67 C 564.65 993.47 562.52 993.51 560.40 993.52 L 560.43 994.26 C 555.68 994.17 550.94 994.36 546.20 994.56 L 546.80 995.40 C 543.98 995.45 541.17 995.57 538.35 995.59 L 538.44 996.25 C 515.17 996.23 491.91 996.26 468.64 996.23 L 468.67 995.50 C 466.25 995.45 463.83 995.33 461.43 995.27 L 461.87 994.45 C 456.58 994.33 451.30 994.21 446.02 994.16 L 447.08 992.85 C 445.86 993.16 444.64 993.46 443.42 993.76 L 443.78 992.52 C 439.61 992.34 435.44 992.17 431.26 992.19 L 431.70 990.46 C 431.17 990.91 430.11 991.81 429.58 992.26 L 429.70 990.56 C 426.11 990.32 422.51 990.21 418.91 990.21 L 422.25 989.93 C 417.96 989.46 413.87 987.77 409.49 988.19 L 409.44 987.26 C 408.94 987.41 407.94 987.73 407.44 987.89 L 407.60 986.57 C 404.91 986.39 402.22 986.24 399.53 986.20 L 399.62 985.52 C 398.55 985.49 397.48 985.47 396.42 985.46 L 396.75 984.51 C 395.22 984.36 393.70 984.20 392.19 984.03 C 390.94 983.74 389.69 983.48 388.45 983.27 C 388.51 983.08 388.64 982.70 388.70 982.51 C 387.19 982.37 385.68 982.23 384.18 982.08 C 382.93 981.78 381.69 981.52 380.44 981.30 C 380.50 981.07 380.60 980.63 380.65 980.40 C 378.30 980.30 375.96 980.23 373.62 980.21 L 373.62 979.25 C 373.27 979.37 372.55 979.62 372.20 979.74 L 372.62 978.50 C 370.28 978.33 367.94 978.21 365.61 978.14 C 365.61 977.73 365.61 976.91 365.61 976.51 C 363.93 976.38 362.25 976.27 360.57 976.20 C 360.52 975.94 360.40 975.42 360.35 975.17 C 359.92 975.31 359.08 975.60 358.65 975.75 L 358.72 974.60 C 357.04 974.23 355.39 973.85 353.74 973.48 C 353.45 973.55 352.89 973.68 352.61 973.74 L 352.68 972.62 C 351.01 972.29 349.38 971.92 347.73 971.57 C 347.44 971.62 346.86 971.74 346.57 971.80 L 346.61 970.65 C 344.97 970.28 343.36 969.85 341.74 969.46 C 341.48 969.51 340.96 969.61 340.70 969.66 L 340.67 968.59 C 339.37 968.26 338.08 967.91 336.79 967.57 C 336.48 967.61 335.87 967.71 335.56 967.75 L 335.63 966.64 C 334.00 966.31 332.40 965.96 330.79 965.59 C 330.49 965.62 329.88 965.67 329.58 965.70 L 329.62 964.45 C 328.14 964.31 326.68 964.22 325.21 964.09 C 324.08 962.41 322.05 962.26 320.26 961.85 C 318.84 960.99 317.39 960.18 315.95 959.39 C 315.76 959.46 315.38 959.59 315.19 959.66 C 313.87 958.99 312.55 958.38 311.20 957.80 C 309.31 956.78 307.35 955.86 305.28 955.28 L 305.47 954.82 C 304.63 954.50 302.95 953.86 302.11 953.54 C 301.73 953.55 300.98 953.57 300.60 953.59 L 300.52 952.59 C 299.84 952.33 298.48 951.80 297.80 951.53 C 297.64 951.56 297.33 951.62 297.17 951.65 C 295.45 950.45 293.49 949.75 291.51 949.19 L 291.48 948.06 C 291.13 948.15 290.41 948.35 290.06 948.44 C 289.42 948.15 288.14 947.57 287.49 947.29 L 287.36 946.14 L 286.18 946.51 C 285.29 946.09 284.40 945.68 283.51 945.28 L 283.53 944.76 C 281.34 943.94 279.24 942.90 277.15 941.88 C 275.08 940.63 272.93 939.53 270.90 938.23 C 270.59 938.30 269.96 938.45 269.65 938.53 L 269.53 937.90 C 269.13 937.61 268.34 937.02 267.94 936.72 C 265.77 935.88 263.77 934.71 261.84 933.44 C 259.90 932.29 257.96 931.17 256.00 930.08 C 255.53 929.80 254.58 929.22 254.11 928.94 C 252.93 928.28 251.75 927.66 250.56 927.06 L 250.73 926.62 C 249.60 926.15 248.47 925.70 247.34 925.25 L 247.42 924.09 C 247.08 924.20 246.40 924.42 246.06 924.52 C 244.56 923.35 243.05 922.20 241.48 921.17 L 241.33 921.01 C 239.62 920.04 237.99 918.93 236.45 917.73 C 235.97 917.64 235.01 917.47 234.53 917.39 L 234.55 916.84 C 232.98 915.79 231.49 914.63 230.02 913.46 C 229.67 913.54 228.97 913.70 228.62 913.78 L 228.56 912.83 C 224.88 910.22 221.11 907.74 217.37 905.23 L 217.34 904.98 C 215.01 903.81 212.99 902.17 211.10 900.41 L 210.36 900.61 L 210.39 899.44 C 209.94 899.51 209.04 899.67 208.59 899.75 L 208.53 898.83 C 204.02 895.82 199.61 892.68 195.55 889.10 L 195.65 888.69 C 194.54 888.20 193.44 887.73 192.34 887.26 L 192.46 886.89 C 189.85 884.91 187.51 882.62 185.19 880.31 L 184.43 880.59 L 184.46 879.38 C 184.01 879.46 183.11 879.62 182.66 879.70 L 182.49 878.87 C 178.34 875.74 174.90 871.81 171.05 868.36 C 170.82 868.34 170.38 868.31 170.16 868.29 C 168.40 866.36 166.48 864.56 164.37 863.03 L 164.43 862.90 C 159.99 859.23 156.17 854.88 152.02 850.90 C 148.29 847.21 144.40 843.65 141.06 839.59 L 140.35 839.62 L 140.61 838.38 L 139.89 838.58 C 139.52 838.22 138.78 837.51 138.42 837.15 L 138.67 836.43 L 138.03 836.29 C 137.28 835.44 136.51 834.61 135.74 833.79 C 135.72 833.58 135.68 833.15 135.66 832.94 C 131.18 828.34 126.82 823.63 122.30 819.07 C 122.28 818.87 122.24 818.48 122.22 818.28 C 119.71 815.09 117.24 811.87 114.27 809.09 C 114.30 808.73 114.35 808.00 114.38 807.64 C 113.89 807.56 112.92 807.41 112.43 807.34 C 112.48 806.99 112.59 806.29 112.65 805.94 C 110.18 803.35 107.77 800.72 105.47 798.00 C 105.55 797.65 105.71 796.95 105.79 796.60 L 104.87 796.51 C 103.55 794.51 102.12 792.60 100.59 790.76 C 100.59 790.55 100.58 790.14 100.58 789.93 C 98.85 787.97 97.13 786.00 95.39 784.06 C 95.49 783.71 95.68 783.00 95.78 782.65 L 94.85 782.54 C 93.85 781.06 92.79 779.64 91.76 778.20 C 90.65 776.19 89.36 774.28 87.78 772.63 C 87.69 772.06 87.50 770.92 87.41 770.36 L 86.89 770.50 C 85.81 768.92 84.63 767.41 83.45 765.93 C 83.52 765.74 83.67 765.35 83.74 765.16 C 82.80 763.93 81.88 762.70 81.05 761.41 L 80.90 761.48 C 79.93 759.30 78.59 757.32 77.27 755.34 L 76.90 755.43 C 75.88 753.25 74.66 751.19 73.60 749.05 C 73.34 748.79 72.83 748.27 72.57 748.01 C 72.13 746.81 71.69 745.65 71.28 744.46 L 70.68 744.73 C 70.22 743.57 69.77 742.42 69.31 741.28 L 68.31 741.42 C 68.36 741.07 68.44 740.36 68.49 740.00 C 68.17 739.39 67.54 738.17 67.22 737.56 L 66.46 737.56 C 66.38 736.99 66.20 735.84 66.11 735.26 C 65.14 733.99 64.37 732.59 63.81 731.11 C 62.53 728.71 61.28 726.31 59.95 723.94 C 59.80 723.32 59.50 722.09 59.34 721.47 L 58.19 721.46 C 58.25 721.11 58.38 720.42 58.45 720.07 C 58.15 719.42 57.56 718.13 57.27 717.48 L 56.12 717.36 L 56.57 716.12 C 56.15 715.37 55.73 714.63 55.30 713.90 C 54.78 712.65 54.29 711.40 53.82 710.16 C 53.05 708.86 52.24 707.58 51.48 706.29 C 51.55 705.85 51.69 704.98 51.76 704.54 L 50.68 704.47 C 50.22 702.46 49.54 700.51 48.27 698.88 C 48.32 698.67 48.42 698.25 48.47 698.04 C 47.67 696.37 46.85 694.72 46.01 693.10 C 45.76 692.24 45.51 691.40 45.27 690.56 L 44.55 690.68 C 44.16 688.95 43.73 687.25 43.34 685.54 L 42.61 685.65 C 42.28 684.34 41.93 683.04 41.57 681.75 C 41.63 681.45 41.75 680.86 41.81 680.56 L 40.49 680.57 C 40.37 679.39 40.24 678.22 40.10 677.07 C 38.09 674.80 37.92 671.63 36.57 669.02 C 36.25 667.65 35.93 666.32 35.61 664.97 L 35.68 664.29 L 34.47 664.49 C 34.35 662.72 34.23 660.96 34.08 659.21 C 32.18 657.60 32.09 655.04 31.49 652.80 C 31.54 652.50 31.63 651.89 31.67 651.58 L 30.62 651.69 C 30.30 649.99 29.91 648.34 29.54 646.67 C 29.63 646.38 29.83 645.81 29.93 645.52 L 28.52 645.56 C 28.39 643.89 28.28 642.23 28.19 640.58 C 27.93 640.52 27.41 640.40 27.15 640.34 C 27.32 639.90 27.65 639.03 27.82 638.60 L 26.61 638.70 C 26.34 636.73 25.98 634.79 25.56 632.86 C 25.61 632.52 25.71 631.84 25.76 631.50 L 24.59 631.65 C 24.38 629.28 24.00 626.94 23.50 624.63 C 23.63 624.37 23.88 623.85 24.00 623.59 L 22.51 623.60 C 22.39 621.47 22.28 619.35 22.21 617.24 L 21.25 617.61 C 21.40 617.06 21.70 615.98 21.85 615.43 L 20.61 615.61 C 20.43 613.78 20.25 611.97 20.03 610.16 C 19.74 608.85 19.52 607.54 19.29 606.23 L 18.53 606.75 C 18.39 604.58 18.26 602.42 18.04 600.27 C 17.72 598.98 17.47 597.68 17.22 596.40 L 16.44 596.75 C 16.34 594.01 16.24 591.29 16.23 588.56 L 15.47 588.65 C 15.49 587.84 15.51 586.22 15.53 585.41 C 15.27 585.47 14.74 585.61 14.48 585.68 C 14.34 582.32 14.22 578.96 14.22 575.61 L 13.42 575.65 C 13.45 574.82 13.51 573.18 13.54 572.35 C 13.28 572.45 12.77 572.64 12.51 572.73 C 12.28 568.18 12.47 563.61 11.59 559.12 C 9.85 554.46 10.33 549.41 10.29 544.54 L 9.70 544.49 C 9.70 539.19 9.38 533.91 9.21 528.62 L 8.41 528.83 C 8.27 506.98 7.99 485.11 8.60 463.26 L 9.44 463.76 C 9.49 460.31 9.64 456.87 9.65 453.43 L 10.29 453.49 C 10.20 449.37 10.32 445.25 10.50 441.14 L 11.35 441.69 C 11.46 436.18 12.44 430.74 12.52 425.23 L 13.47 425.61 C 13.45 424.51 13.43 423.42 13.40 422.33 L 14.20 422.39 C 14.22 419.35 14.33 416.31 14.46 413.27 L 15.51 413.59 C 15.48 412.52 15.46 411.45 15.44 410.40 L 16.22 410.38 C 16.23 407.35 16.34 404.32 16.45 401.30 C 16.65 401.36 17.04 401.49 17.23 401.55 C 17.47 400.27 17.73 399.00 18.03 397.75 C 18.27 395.63 18.43 393.52 18.60 391.41 L 19.84 391.57 C 19.70 391.05 19.43 390.00 19.29 389.48 L 20.21 389.43 C 20.26 387.06 20.37 384.69 20.48 382.32 L 21.30 382.69 C 21.54 381.41 21.79 380.14 22.08 378.88 C 22.26 377.36 22.44 375.84 22.60 374.33 C 22.99 374.34 23.75 374.37 24.14 374.38 C 24.21 371.72 24.32 369.07 24.47 366.42 L 25.80 366.46 C 25.75 366.17 25.64 365.58 25.59 365.29 C 25.99 363.33 26.33 361.35 26.62 359.38 L 27.89 359.40 C 27.79 359.12 27.59 358.56 27.49 358.28 C 27.88 356.61 28.27 354.93 28.62 353.26 L 29.62 353.38 C 29.59 353.09 29.53 352.50 29.49 352.21 C 29.93 350.29 30.33 348.35 30.68 346.41 L 31.82 346.48 C 31.77 346.17 31.67 345.55 31.62 345.24 C 31.99 343.61 32.35 341.97 32.63 340.33 L 33.37 340.54 C 33.78 338.49 34.26 336.46 34.68 334.42 L 35.87 334.47 C 35.79 334.16 35.63 333.53 35.56 333.22 C 35.93 331.94 36.28 330.67 36.63 329.39 C 36.84 329.41 37.26 329.47 37.47 329.49 C 37.55 328.57 37.71 326.74 37.79 325.82 C 38.42 324.84 39.06 323.88 39.72 322.92 C 39.66 322.74 39.54 322.37 39.48 322.19 C 40.14 320.13 40.91 318.10 41.68 316.08 C 42.51 313.93 43.51 311.86 44.53 309.80 L 44.27 309.18 C 45.08 307.78 45.86 306.38 46.61 304.95 C 46.52 304.62 46.34 303.94 46.25 303.61 L 47.33 303.59 C 47.65 302.63 47.98 301.68 48.32 300.74 L 48.18 299.54 L 49.31 299.47 C 49.73 297.77 50.21 296.09 50.64 294.41 L 51.27 294.49 C 51.67 293.59 52.07 292.70 52.48 291.81 L 52.16 290.63 L 53.28 290.52 C 53.78 288.50 54.60 286.58 55.80 284.87 C 56.34 283.47 56.97 282.12 57.70 280.82 C 58.37 279.47 59.00 278.11 59.72 276.80 C 60.34 275.45 61.09 274.18 61.71 272.84 C 62.34 271.37 63.14 269.99 64.13 268.75 C 64.22 268.16 64.40 267.00 64.49 266.42 L 65.34 266.64 C 65.85 265.29 66.38 263.96 66.86 262.61 L 67.82 262.74 L 67.36 261.50 L 68.51 261.34 C 68.45 260.88 68.33 259.96 68.26 259.50 L 69.30 259.56 C 69.71 258.22 70.17 256.89 70.61 255.57 L 71.94 255.43 C 71.81 255.06 71.57 254.32 71.45 253.95 C 71.87 253.48 72.70 252.54 73.12 252.07 C 73.70 250.87 74.28 249.67 74.84 248.47 L 75.30 248.68 C 75.76 247.55 76.21 246.42 76.67 245.29 L 77.11 245.48 C 79.18 241.42 81.75 237.60 84.55 234.01 C 84.50 233.68 84.38 233.00 84.32 232.66 L 85.15 232.55 C 86.21 230.99 87.37 229.50 88.54 228.03 C 88.46 227.68 88.30 226.97 88.22 226.62 L 89.13 226.53 C 90.57 224.68 91.94 222.76 92.87 220.59 L 93.21 220.55 C 94.39 218.80 95.65 217.11 96.82 215.35 L 97.50 215.48 C 97.52 214.99 97.57 214.01 97.60 213.52 C 99.30 211.75 100.97 209.94 102.60 208.10 C 102.58 207.86 102.53 207.38 102.51 207.14 C 104.51 204.73 106.54 202.35 108.64 200.02 C 108.57 199.70 108.44 199.06 108.37 198.74 L 109.21 198.61 C 111.05 195.82 113.45 193.48 115.74 191.07 C 115.70 190.71 115.62 190.00 115.58 189.65 C 116.07 189.57 117.05 189.42 117.54 189.35 C 117.50 188.90 117.42 188.00 117.38 187.55 L 118.58 187.55 L 118.31 186.37 L 119.01 186.37 C 120.94 184.06 123.04 181.89 124.87 179.49 L 125.63 179.41 C 125.63 179.08 125.62 178.41 125.62 178.07 C 126.30 177.38 126.97 176.68 127.64 175.97 C 131.65 170.80 136.79 166.65 140.92 161.59 L 141.65 161.64 L 141.37 160.46 L 142.58 160.49 C 142.60 160.03 142.65 159.10 142.68 158.63 C 143.13 158.63 144.03 158.62 144.48 158.61 L 144.34 157.37 L 145.58 157.47 C 145.61 157.15 145.66 156.52 145.68 156.20 C 146.49 155.53 147.29 154.85 148.09 154.17 C 149.79 152.33 151.53 150.54 153.38 148.86 C 153.41 148.54 153.48 147.91 153.51 147.59 L 154.64 147.71 L 154.67 146.91 C 155.89 145.90 157.09 144.87 158.32 143.87 C 158.38 143.52 158.50 142.83 158.56 142.48 C 159.02 142.48 159.94 142.47 160.40 142.46 L 160.30 141.30 L 161.56 141.41 C 161.56 140.96 161.56 140.05 161.55 139.59 C 162.04 139.60 163.01 139.62 163.49 139.63 L 163.33 138.31 L 164.51 138.67 L 164.57 137.99 C 169.17 134.13 173.02 129.44 177.81 125.78 C 179.03 124.79 180.19 123.73 181.31 122.63 C 181.50 122.63 181.88 122.64 182.06 122.65 C 185.31 119.53 188.68 116.55 192.16 113.71 C 192.39 113.70 192.85 113.69 193.07 113.68 C 195.70 111.31 198.04 108.50 201.34 107.02 L 201.45 106.81 C 204.63 104.52 207.34 101.55 210.98 99.92 C 212.34 98.68 213.69 97.43 215.04 96.18 C 215.27 96.27 215.72 96.46 215.95 96.56 C 217.41 95.37 218.88 94.19 220.39 93.06 L 220.30 92.35 L 221.50 92.61 C 221.54 92.30 221.63 91.68 221.68 91.37 L 222.97 91.75 C 224.62 90.28 226.28 88.83 227.95 87.39 C 228.31 87.51 229.04 87.75 229.41 87.88 L 229.42 86.96 C 230.72 86.15 231.91 85.18 233.15 84.26 C 233.35 84.33 233.75 84.45 233.95 84.52 C 235.45 83.36 236.96 82.21 238.53 81.14 L 238.63 80.27 C 238.97 80.34 239.66 80.47 240.00 80.53 C 241.87 79.01 243.87 77.67 245.95 76.45 C 248.71 74.80 251.46 73.12 254.17 71.38 C 255.07 70.86 255.96 70.35 256.87 69.84 C 258.19 69.13 259.53 68.43 260.88 67.76 C 263.28 66.31 265.78 65.02 268.35 63.89 L 268.50 63.86 C 268.86 63.54 269.59 62.89 269.95 62.56 C 271.14 62.12 272.34 61.68 273.55 61.27 L 273.48 60.51 C 274.81 60.11 276.14 59.69 277.48 59.32 L 277.47 58.47 C 278.84 58.09 280.21 57.70 281.60 57.35 L 281.47 56.53 C 282.83 56.13 284.19 55.73 285.56 55.37 L 285.55 54.69 C 286.22 54.39 287.55 53.79 288.21 53.49 C 288.35 53.52 288.63 53.59 288.77 53.63 C 290.32 52.58 292.07 51.91 293.85 51.32 L 293.60 50.71 C 295.26 50.31 296.90 49.86 298.57 49.45 L 298.44 48.69 C 300.13 48.23 301.81 47.72 303.51 47.26 L 303.31 46.43 C 304.47 46.32 305.63 46.21 306.79 46.08 C 308.32 44.44 310.43 43.78 312.56 43.32 L 312.38 42.64 C 315.27 42.36 318.10 41.62 320.43 39.80 L 320.69 39.37 C 321.13 39.48 322.01 39.71 322.45 39.82 L 322.39 38.66 C 324.40 38.23 326.40 37.73 328.42 37.30 C 328.41 37.13 328.38 36.78 328.37 36.60 C 329.66 36.24 330.94 35.87 332.23 35.49 C 332.53 35.58 333.11 35.76 333.40 35.85 L 333.39 34.64 C 335.01 34.30 336.63 33.89 338.25 33.51 C 338.54 33.57 339.10 33.68 339.38 33.73 L 339.37 32.66 C 340.65 32.32 341.94 31.97 343.22 31.60 C 343.53 31.64 344.14 31.73 344.45 31.77 L 344.43 30.46 C 346.41 30.34 348.39 30.23 350.38 30.13 C 350.37 29.73 350.37 28.91 350.36 28.50 C 352.06 28.39 353.76 28.29 355.46 28.20 L 355.48 27.27 C 355.97 27.39 356.95 27.62 357.44 27.74 L 357.34 26.59 C 359.34 26.31 361.34 25.95 363.32 25.53 C 363.60 25.59 364.15 25.71 364.42 25.77 L 364.33 24.62 C 366.28 24.36 368.22 23.98 370.14 23.53 C 370.48 23.62 371.16 23.79 371.50 23.88 L 371.38 22.67 C 373.23 22.42 375.08 22.10 376.93 21.75 C 379.57 20.40 382.49 20.06 385.43 20.17 L 385.39 19.33 C 385.91 19.39 386.94 19.52 387.46 19.59 L 387.30 18.57 C 388.87 18.35 390.45 18.10 392.01 17.80 C 393.59 17.70 395.18 17.60 396.77 17.50 L 396.36 16.52 C 398.73 16.38 401.11 16.26 403.49 16.21 L 403.57 15.26 C 404.06 15.42 405.04 15.74 405.53 15.90 L 405.41 14.57 C 408.44 14.35 411.47 14.21 414.51 14.21 L 414.61 13.13 C 415.06 13.34 415.97 13.75 416.42 13.96 C 416.44 13.62 416.47 12.92 416.49 12.57 C 420.13 12.31 423.77 12.18 427.43 12.22 L 427.32 11.45 C 428.42 11.46 429.52 11.47 430.63 11.48 L 430.24 10.49 C 434.53 10.31 438.82 10.17 443.11 10.24 L 439.90 9.59 C 441.84 9.56 443.77 9.53 445.72 9.49 L 445.28 8.54 C 451.09 8.10 456.97 8.66 462.72 7.56 C 464.41 7.52 466.10 7.47 467.80 7.43 L 467.20 6.62 M 454.99 130.37 C 453.78 130.46 452.57 130.55 451.36 130.64 C 451.45 130.87 451.63 131.32 451.73 131.54 C 448.55 131.66 445.38 131.72 442.21 131.89 C 440.94 132.22 439.67 132.51 438.40 132.77 C 438.48 132.96 438.65 133.32 438.73 133.51 C 435.37 133.57 432.01 133.74 428.75 134.57 C 428.45 134.49 427.85 134.32 427.54 134.24 L 427.70 135.47 C 424.26 135.58 420.88 136.16 417.49 136.65 L 417.77 137.43 C 415.25 137.76 412.76 138.24 410.26 138.60 L 410.64 139.33 C 408.65 139.62 406.69 139.98 404.74 140.41 C 404.44 140.38 403.84 140.31 403.54 140.28 L 403.62 141.58 C 401.92 141.65 400.22 141.71 398.53 141.76 L 398.40 142.73 C 397.93 142.56 396.98 142.23 396.51 142.07 L 396.57 143.27 C 394.71 143.62 392.87 144.07 391.03 144.50 C 390.66 144.47 389.91 144.41 389.54 144.39 L 389.66 145.59 C 388.18 145.65 386.71 145.72 385.24 145.78 C 384.61 146.38 383.98 146.98 383.35 147.58 C 381.97 147.67 380.60 147.77 379.24 147.89 C 377.71 149.24 375.78 149.87 373.90 150.52 C 373.69 150.44 373.29 150.29 373.08 150.21 C 372.11 150.88 371.13 151.54 370.15 152.19 C 368.90 152.31 367.67 152.44 366.43 152.58 L 366.65 153.57 C 365.48 153.67 364.32 153.78 363.17 153.91 C 361.42 155.72 358.95 156.26 356.58 156.74 L 356.62 157.42 C 355.94 157.64 354.58 158.10 353.91 158.33 C 353.71 158.35 353.31 158.38 353.12 158.40 C 351.81 159.04 350.53 159.74 349.18 160.27 C 347.91 160.88 346.69 161.59 345.40 162.15 C 344.25 162.75 343.11 163.38 341.98 164.00 C 341.35 164.16 340.10 164.49 339.47 164.66 L 339.62 165.36 C 338.14 165.77 336.68 166.22 335.21 166.66 L 335.53 167.86 C 335.15 167.78 334.41 167.62 334.04 167.53 C 333.40 167.82 332.12 168.41 331.48 168.70 L 331.50 169.34 C 330.15 169.75 328.82 170.19 327.49 170.61 L 327.58 171.56 C 326.99 171.63 325.83 171.78 325.25 171.85 C 322.62 174.00 319.55 175.50 316.47 176.87 L 316.69 177.38 C 315.53 177.80 314.38 178.21 313.22 178.63 L 313.42 179.05 C 311.34 179.75 309.58 181.08 307.94 182.50 C 307.73 182.45 307.31 182.35 307.10 182.29 C 305.52 183.67 303.83 184.92 301.99 185.93 C 300.44 186.81 298.95 187.81 297.45 188.77 L 297.35 189.78 L 296.11 189.47 C 294.25 191.00 292.36 192.49 290.41 193.90 L 290.38 194.62 C 289.95 194.53 289.08 194.36 288.64 194.27 L 288.57 195.19 C 286.80 196.36 285.09 197.61 283.32 198.78 L 283.43 199.38 C 282.86 199.50 281.73 199.74 281.17 199.85 C 279.48 201.72 277.60 203.39 275.56 204.86 L 275.44 205.23 C 274.83 205.54 273.62 206.16 273.02 206.48 L 272.31 206.43 L 272.41 207.08 C 270.07 208.96 267.91 211.06 265.51 212.87 L 265.34 213.68 C 264.90 213.61 264.02 213.47 263.58 213.39 L 263.55 214.61 L 262.32 214.33 L 262.42 215.06 C 258.08 218.52 254.53 222.87 249.96 226.06 C 249.28 226.83 248.62 227.62 247.96 228.41 C 247.60 228.39 246.88 228.35 246.52 228.34 L 246.70 229.63 L 245.42 229.40 L 245.64 230.21 C 245.26 230.44 244.50 230.90 244.12 231.13 C 243.12 232.09 242.13 233.05 241.13 234.02 C 240.89 234.42 240.40 235.22 240.15 235.63 L 239.33 235.40 L 239.57 236.17 C 239.22 236.52 238.52 237.23 238.17 237.58 L 237.39 237.39 L 237.61 238.17 C 237.25 238.53 236.54 239.25 236.18 239.61 L 235.43 239.39 L 235.58 240.64 L 234.31 240.50 C 234.31 240.85 234.32 241.54 234.33 241.89 C 233.16 242.87 232.03 243.89 230.89 244.90 C 230.25 245.59 229.61 246.28 228.96 246.97 C 227.98 248.08 227.02 249.21 226.08 250.36 L 225.43 250.48 L 225.64 251.65 L 224.93 251.60 C 222.03 255.26 218.34 258.23 215.63 262.06 C 215.02 262.76 214.41 263.47 213.79 264.18 C 213.77 264.41 213.71 264.87 213.69 265.10 C 210.96 267.90 208.26 270.76 206.15 274.07 C 204.57 276.27 202.77 278.31 201.18 280.51 L 200.98 280.66 C 199.56 283.41 197.50 285.73 195.43 287.99 C 195.52 288.34 195.72 289.03 195.81 289.38 L 194.85 289.46 C 192.09 293.32 189.29 297.18 187.06 301.39 L 186.86 301.52 C 185.78 303.07 184.60 304.54 183.42 306.01 C 183.51 306.36 183.70 307.06 183.80 307.41 L 182.94 307.35 C 182.09 308.62 181.12 309.82 180.23 311.07 C 179.24 313.24 178.11 315.33 177.17 317.52 L 176.71 317.32 C 176.23 318.45 175.76 319.57 175.29 320.71 L 174.04 320.65 C 174.22 320.96 174.58 321.60 174.76 321.92 C 173.91 322.97 173.05 324.01 172.18 325.05 C 172.29 325.30 172.51 325.81 172.62 326.06 C 171.78 327.04 170.96 328.04 170.13 329.04 C 169.67 330.56 168.96 331.98 167.94 333.22 C 167.76 334.28 167.59 335.35 167.42 336.43 L 166.22 336.28 L 166.61 337.49 L 166.12 337.65 C 164.54 341.29 162.32 344.65 161.24 348.51 L 160.61 348.46 C 160.17 350.14 159.70 351.80 159.27 353.49 L 158.63 353.31 C 158.15 355.38 157.42 357.39 156.22 359.16 C 155.66 360.51 155.15 361.87 154.51 363.19 C 154.46 363.33 154.37 363.60 154.32 363.73 C 153.97 365.01 153.65 366.30 153.33 367.59 L 152.25 367.58 C 152.32 367.91 152.45 368.58 152.52 368.91 C 151.86 370.75 151.10 372.55 150.14 374.25 C 149.73 375.93 149.46 377.69 148.39 379.13 C 148.39 379.35 148.38 379.78 148.38 380.00 C 148.11 380.91 147.57 382.71 147.30 383.62 L 146.29 383.58 C 146.32 383.89 146.38 384.50 146.41 384.80 C 146.03 386.41 145.64 388.01 145.33 389.64 L 144.14 389.58 C 144.23 389.85 144.40 390.40 144.48 390.68 C 144.05 392.61 143.63 394.55 143.29 396.52 C 143.12 396.48 142.77 396.40 142.60 396.36 C 142.39 397.29 141.97 399.16 141.76 400.09 C 141.68 401.31 141.60 402.52 141.53 403.74 L 140.30 403.54 C 140.43 404.03 140.70 405.01 140.83 405.50 L 139.79 405.54 C 139.74 407.58 139.65 409.63 139.57 411.68 L 138.33 411.51 C 138.37 411.87 138.46 412.60 138.50 412.97 C 137.89 415.46 137.57 418.02 137.42 420.59 L 136.11 420.54 C 136.19 420.83 136.36 421.40 136.44 421.69 C 135.85 424.32 135.56 427.01 135.42 429.71 L 134.45 429.30 C 134.46 430.39 134.47 431.48 134.49 432.58 L 133.77 432.61 C 133.80 436.49 133.80 440.46 132.37 444.14 C 131.70 447.66 131.59 451.25 131.55 454.83 L 130.68 454.38 C 130.60 455.62 130.51 456.87 130.43 458.12 C 129.27 464.59 129.86 471.20 129.39 477.74 L 128.55 477.23 C 128.43 484.16 128.14 491.10 128.27 498.04 C 128.12 499.37 127.95 500.70 127.77 502.04 C 127.75 504.85 127.74 507.67 127.68 510.50 L 128.29 510.53 C 128.17 517.59 128.36 524.64 128.61 531.69 L 129.47 531.21 C 129.68 536.28 129.81 541.36 129.76 546.45 L 130.54 546.37 C 130.52 547.45 130.50 548.54 130.48 549.64 L 131.45 549.29 C 131.63 553.00 131.79 556.72 131.76 560.44 L 132.54 560.41 C 132.49 561.21 132.40 562.82 132.35 563.62 C 132.64 563.56 133.21 563.44 133.49 563.38 C 133.64 566.05 133.76 568.73 133.79 571.42 L 134.47 571.42 C 134.46 572.52 134.46 573.62 134.45 574.73 L 135.49 574.30 C 135.61 576.66 135.72 579.04 135.77 581.42 L 136.48 581.44 C 136.47 582.53 136.45 583.62 136.44 584.71 L 137.42 584.32 C 137.58 586.16 137.73 588.01 137.93 589.86 C 138.22 591.12 138.46 592.39 138.69 593.68 L 139.40 593.32 C 139.59 595.65 139.98 597.98 140.54 600.26 C 140.46 600.55 140.30 601.11 140.21 601.39 L 141.61 601.33 C 141.66 603.05 141.72 604.79 141.75 606.52 L 142.77 606.59 C 142.65 607.04 142.41 607.93 142.29 608.37 L 143.39 608.29 C 143.72 609.96 144.10 611.65 144.49 613.33 C 144.40 613.60 144.23 614.15 144.15 614.43 L 145.34 614.36 C 145.62 616.34 145.99 618.32 146.45 620.27 C 146.42 620.55 146.35 621.11 146.31 621.39 L 147.55 621.35 C 147.65 622.81 147.77 624.29 147.91 625.77 C 149.54 626.94 149.69 628.96 150.16 630.76 C 151.30 632.38 151.97 634.26 152.59 636.14 C 152.48 636.46 152.26 637.09 152.15 637.40 L 153.37 637.42 C 153.75 639.11 154.20 640.80 154.59 642.50 L 155.33 642.36 C 155.60 644.38 156.30 646.33 157.50 648.01 C 157.64 648.93 157.78 649.86 157.93 650.80 C 159.61 652.30 160.37 654.39 160.62 656.59 L 161.37 656.44 C 161.74 657.81 162.15 659.18 162.54 660.57 L 163.23 660.48 C 163.76 662.44 164.48 664.35 165.61 666.06 L 165.72 666.74 C 166.07 667.65 166.41 668.57 166.75 669.50 L 167.57 669.46 C 167.90 670.81 168.26 672.20 168.56 673.58 L 169.20 673.50 C 170.35 675.93 171.63 678.29 172.81 680.71 L 173.12 680.50 C 173.78 681.97 174.49 683.43 175.23 684.88 C 176.12 686.70 177.28 688.36 178.52 689.98 C 178.40 690.36 178.18 691.14 178.07 691.53 L 179.17 691.27 C 179.67 692.37 180.16 693.47 180.65 694.59 L 181.60 694.45 L 181.57 695.72 C 181.86 695.71 182.44 695.70 182.73 695.70 C 184.45 696.09 186.21 696.29 187.99 696.28 C 322.15 696.27 456.32 696.27 590.48 696.28 L 590.43 695.68 C 593.51 695.68 596.60 695.54 599.69 695.44 C 599.59 695.22 599.39 694.78 599.29 694.56 C 601.98 694.46 604.68 694.25 607.31 693.60 C 607.59 693.65 608.17 693.74 608.46 693.79 L 608.40 692.54 C 609.86 692.37 611.36 692.23 612.84 692.05 C 614.39 690.70 616.27 689.88 618.13 689.05 C 618.61 688.62 619.59 687.75 620.08 687.32 C 620.29 687.44 620.73 687.67 620.94 687.78 C 625.51 683.79 629.69 679.41 633.81 674.97 C 633.68 674.74 633.40 674.27 633.26 674.03 C 634.24 673.00 635.23 671.99 636.23 670.99 C 636.29 670.35 636.40 669.06 636.46 668.42 L 637.34 668.54 C 637.77 666.38 638.37 664.22 640.08 662.71 C 640.26 660.55 640.36 658.39 640.49 656.24 L 641.44 656.68 C 641.48 655.26 641.54 653.85 641.58 652.45 L 642.26 652.41 C 642.77 594.27 642.38 536.12 642.50 477.98 C 642.36 453.09 642.86 428.18 642.17 403.29 C 641.81 402.36 641.48 401.43 641.16 400.49 L 640.06 400.48 L 640.62 398.71 L 639.43 398.44 C 639.52 398.06 639.69 397.29 639.77 396.91 C 637.54 394.31 634.94 392.07 632.02 390.29 C 631.82 390.30 631.44 390.33 631.24 390.35 C 629.61 389.93 627.95 389.56 626.30 389.25 L 626.71 388.45 C 625.61 388.45 624.52 388.46 623.43 388.48 L 623.42 387.74 C 565.91 387.76 508.41 387.73 450.91 387.75 C 449.19 387.74 447.52 388.14 445.85 388.45 C 445.51 388.36 444.84 388.18 444.50 388.09 L 444.59 389.40 C 443.40 389.53 442.21 389.68 441.04 389.83 C 440.06 390.74 439.06 391.62 438.08 392.52 C 437.70 392.46 436.92 392.34 436.53 392.27 L 436.42 393.05 C 435.43 393.87 434.48 394.73 433.54 395.61 C 432.43 397.85 431.56 400.22 431.25 402.72 L 430.21 402.48 C 430.29 402.83 430.44 403.55 430.52 403.91 C 430.20 405.26 429.96 406.62 429.79 408.01 C 429.58 461.57 429.98 515.14 429.59 568.70 C 429.39 568.66 428.99 568.57 428.79 568.53 C 428.52 569.74 428.23 570.96 427.93 572.17 C 427.84 572.88 427.66 574.31 427.57 575.02 C 426.42 577.15 425.50 579.44 423.91 581.30 C 423.80 581.86 423.57 582.98 423.46 583.53 L 422.92 583.56 C 420.02 587.20 416.84 590.85 412.63 593.00 L 412.77 593.38 C 411.57 593.81 410.38 594.23 409.19 594.67 L 409.53 595.51 C 407.85 595.60 406.18 595.70 404.51 595.79 L 404.48 596.77 C 403.98 596.61 402.99 596.28 402.50 596.11 L 402.60 597.49 C 388.20 597.92 373.77 597.88 359.36 597.50 L 359.44 596.05 C 359.01 596.25 358.15 596.63 357.72 596.82 C 357.65 596.62 357.51 596.21 357.45 596.01 C 355.67 595.78 353.80 595.53 352.68 593.97 C 351.62 593.79 350.56 593.62 349.50 593.48 L 349.70 592.33 L 348.47 592.63 L 348.40 591.46 C 348.04 591.53 347.32 591.67 346.96 591.74 C 344.86 589.81 342.85 587.79 341.08 585.57 L 340.38 585.69 L 340.64 584.44 L 339.42 584.37 C 339.51 583.91 339.70 582.98 339.79 582.51 L 338.70 582.69 C 338.22 581.55 337.75 580.42 337.28 579.30 L 336.51 579.58 C 336.36 578.13 336.22 576.71 336.05 575.28 C 333.35 573.65 334.51 570.16 334.21 567.57 L 333.39 567.60 C 333.49 566.13 333.58 564.65 333.71 563.19 L 332.62 563.97 C 332.47 484.71 332.56 405.45 332.60 326.19 L 333.28 326.82 C 333.45 325.14 333.63 323.46 334.00 321.81 C 334.20 320.34 334.38 318.87 334.55 317.41 L 335.84 317.49 C 335.72 317.03 335.47 316.10 335.35 315.64 L 336.57 315.26 L 336.25 314.05 C 337.58 311.95 338.94 309.86 340.56 307.97 L 340.39 306.73 C 340.74 306.71 341.43 306.65 341.77 306.62 L 341.46 305.46 L 342.06 305.37 C 343.59 303.55 345.27 301.86 347.00 300.22 C 347.23 300.30 347.68 300.45 347.91 300.53 C 349.34 299.28 351.00 298.39 352.74 297.67 C 354.36 296.74 356.08 296.01 357.84 295.37 C 358.24 295.44 359.05 295.60 359.45 295.67 L 359.29 294.31 C 359.67 294.42 360.42 294.64 360.80 294.75 L 360.22 293.73 C 478.62 293.73 597.03 293.71 715.43 293.75 L 715.53 294.82 C 716.01 294.66 716.96 294.34 717.44 294.18 L 717.36 295.51 C 718.15 295.59 719.73 295.74 720.52 295.82 C 723.41 297.72 726.53 299.24 729.66 300.72 L 729.70 301.04 C 733.57 304.27 737.19 307.92 739.47 312.49 C 739.90 313.81 740.33 315.14 740.76 316.48 L 741.48 316.34 C 741.72 318.33 742.09 320.31 742.50 322.28 C 742.42 322.56 742.28 323.12 742.21 323.40 L 743.60 323.37 C 743.85 331.58 743.68 339.80 743.74 348.01 C 743.73 455.35 743.77 562.68 743.72 670.02 C 743.93 674.92 742.27 679.62 742.22 684.50 L 741.74 684.54 C 741.66 686.24 741.59 687.97 741.51 689.69 L 740.44 689.27 C 740.44 690.38 740.44 691.49 740.46 692.61 L 739.90 692.61 C 739.88 695.22 739.35 697.77 738.22 700.12 C 737.91 701.63 737.64 703.14 737.40 704.67 L 736.69 704.47 C 736.28 707.00 735.40 709.44 733.89 711.52 C 733.79 712.28 733.60 713.80 733.50 714.56 L 732.16 714.59 C 732.25 714.90 732.42 715.50 732.51 715.80 C 732.23 716.48 731.67 717.84 731.39 718.52 L 730.74 718.51 C 730.33 719.83 729.87 721.13 729.46 722.47 L 728.79 722.47 C 727.10 726.29 724.99 729.94 722.32 733.16 C 722.40 733.34 722.54 733.70 722.62 733.89 C 721.42 735.39 720.23 736.90 719.10 738.46 L 718.39 738.34 L 718.68 739.56 C 718.37 739.57 717.76 739.60 717.45 739.61 C 717.51 740.10 717.62 741.08 717.67 741.57 L 716.91 741.47 C 715.08 743.88 712.94 746.04 711.11 748.45 L 710.42 748.59 C 710.39 748.88 710.31 749.45 710.27 749.74 C 708.11 751.77 706.09 753.94 704.02 756.07 C 702.57 757.37 701.14 758.70 699.66 759.97 L 699.54 760.59 L 698.37 760.35 L 698.39 761.06 C 696.13 763.02 693.99 765.12 691.65 766.99 L 691.63 767.69 L 690.42 767.43 L 690.42 768.68 C 689.98 768.59 689.11 768.42 688.67 768.33 L 688.71 769.24 C 686.42 770.73 684.18 772.28 681.91 773.78 C 679.98 775.04 678.04 776.27 676.09 777.48 C 675.16 777.92 674.24 778.36 673.33 778.81 L 673.61 779.61 C 673.02 779.67 671.85 779.80 671.27 779.86 C 670.08 780.96 668.66 781.72 667.15 782.25 C 665.73 782.98 664.39 783.82 662.99 784.57 C 662.61 784.46 661.86 784.24 661.48 784.13 L 661.56 785.25 C 660.00 785.66 658.47 786.14 656.94 786.62 C 655.32 787.44 653.57 787.97 651.85 788.51 C 651.67 788.48 651.32 788.41 651.14 788.38 C 649.52 789.30 647.80 789.98 646.07 790.64 C 645.68 790.51 644.90 790.25 644.50 790.11 L 644.58 791.45 C 642.79 791.59 641.00 791.74 639.23 791.94 C 637.92 792.23 636.61 792.50 635.30 792.74 C 635.41 792.90 635.62 793.21 635.73 793.36 C 628.26 794.51 620.70 794.71 613.16 794.61 L 613.88 795.41 C 507.07 795.43 400.26 795.37 293.45 795.41 L 293.00 793.00 L 292.55 795.46 C 289.31 795.38 286.05 795.42 282.89 794.59 L 283.98 795.69 C 280.11 795.28 276.22 795.41 272.34 795.41 C 272.48 796.23 272.62 797.06 272.77 797.90 C 273.82 798.30 274.88 798.73 275.93 799.18 C 277.71 800.63 279.43 802.16 281.05 803.79 C 281.36 803.63 281.99 803.31 282.30 803.15 L 282.37 804.58 L 283.63 804.36 L 283.50 805.05 C 285.45 806.54 287.30 808.16 289.13 809.81 L 289.86 809.31 C 292.17 811.41 294.52 813.49 297.27 815.02 L 297.47 815.21 C 299.04 816.24 300.55 817.38 302.05 818.54 C 302.39 818.43 303.08 818.23 303.43 818.13 L 303.29 819.29 C 304.43 819.75 305.57 820.21 306.72 820.69 L 306.56 821.04 C 308.52 821.92 310.27 823.16 311.93 824.52 C 312.33 824.41 313.13 824.20 313.54 824.09 L 313.22 825.22 C 314.38 825.67 315.55 826.13 316.72 826.60 L 316.60 827.19 C 317.91 827.66 319.20 828.17 320.51 828.67 L 320.42 829.57 C 321.01 829.64 322.19 829.77 322.78 829.83 C 324.09 831.31 325.83 832.13 327.71 832.66 L 327.64 833.17 C 328.25 833.47 329.48 834.08 330.09 834.38 C 330.26 834.39 330.62 834.42 330.80 834.43 C 332.10 835.10 333.44 835.71 334.82 836.26 C 336.12 836.99 337.47 837.64 338.84 838.27 C 340.16 838.93 341.48 839.62 342.84 840.24 C 344.55 841.44 346.49 842.22 348.53 842.69 L 348.41 843.40 C 350.11 843.78 351.81 844.23 353.52 844.62 L 353.43 845.32 C 354.68 845.68 355.92 846.07 357.16 846.48 C 357.47 846.44 358.09 846.36 358.40 846.32 L 358.36 847.33 C 359.23 847.62 360.97 848.19 361.83 848.47 C 362.24 848.45 363.07 848.40 363.48 848.37 L 363.39 849.45 C 365.14 849.82 366.87 850.25 368.63 850.64 L 368.31 851.53 C 369.60 851.60 370.89 851.68 372.19 851.76 C 373.19 852.51 374.20 853.28 375.19 854.09 C 376.68 854.20 378.17 854.29 379.68 854.40 L 379.46 855.29 C 381.52 855.70 383.57 856.19 385.64 856.62 L 385.59 857.71 C 385.90 857.65 386.53 857.55 386.85 857.50 C 389.66 858.11 392.40 859.02 395.04 860.19 C 396.56 860.28 398.07 860.39 399.60 860.51 L 399.56 861.88 C 399.83 861.80 400.37 861.65 400.65 861.57 C 402.65 861.99 404.67 862.32 406.72 862.59 L 406.60 863.67 C 406.88 863.63 407.45 863.56 407.73 863.53 C 410.02 864.10 412.36 864.42 414.73 864.60 L 414.25 865.29 C 415.56 865.52 416.88 865.76 418.19 866.07 C 420.36 866.27 422.55 866.42 424.74 866.59 L 424.46 867.80 C 424.81 867.73 425.52 867.58 425.87 867.51 C 429.07 868.31 432.38 868.39 435.67 868.56 C 435.65 868.96 435.61 869.75 435.58 870.15 C 439.63 870.19 443.68 870.31 447.73 870.44 C 447.64 870.67 447.46 871.12 447.37 871.35 C 449.89 871.49 452.41 871.65 454.94 871.83 C 458.52 872.46 462.18 872.40 465.82 872.51 L 465.33 873.33 C 469.04 873.54 472.76 873.74 476.49 873.70 L 476.55 874.29 C 493.19 874.44 509.83 874.44 526.47 874.29 L 526.48 873.69 C 529.93 873.69 533.37 873.53 536.82 873.44 L 536.24 872.55 C 538.44 872.50 540.66 872.46 542.88 872.45 L 538.99 871.77 C 544.57 871.81 550.16 871.73 555.73 871.43 L 555.25 870.59 C 559.44 870.43 563.59 869.74 567.77 869.40 L 567.28 868.62 C 570.42 868.38 573.58 868.26 576.73 868.07 C 578.04 867.74 579.37 867.48 580.71 867.24 L 580.26 866.45 C 582.66 866.35 585.06 866.26 587.47 866.23 L 587.60 865.22 C 588.08 865.40 589.03 865.75 589.51 865.92 L 589.38 864.60 C 591.51 864.40 593.64 864.23 595.76 863.95 C 596.70 863.71 597.65 863.50 598.61 863.30 L 598.32 862.62 C 600.31 862.31 602.30 861.96 604.29 861.60 C 604.42 861.60 604.67 861.60 604.79 861.60 C 606.30 860.45 608.17 860.29 609.98 860.05 C 612.69 859.08 615.40 858.10 618.21 857.43 C 618.51 857.52 619.12 857.70 619.43 857.80 L 619.33 856.64 C 620.97 856.33 622.62 855.97 624.27 855.64 C 624.41 855.62 624.68 855.57 624.82 855.55 C 626.12 854.92 627.46 854.36 628.83 853.87 C 630.23 853.34 631.60 852.74 632.99 852.18 C 635.63 851.49 638.21 850.55 640.84 849.80 C 642.82 848.43 645.15 847.77 647.48 847.28 L 647.35 846.59 C 649.06 846.21 650.77 845.79 652.49 845.41 L 652.39 844.64 C 653.67 844.27 654.96 843.89 656.25 843.52 C 656.54 843.59 657.12 843.74 657.41 843.82 L 657.41 842.52 C 658.50 842.35 659.60 842.19 660.70 842.04 C 661.97 841.11 663.30 840.29 664.70 839.57 C 666.09 838.98 667.44 838.32 668.85 837.75 C 670.13 836.99 671.49 836.35 672.84 835.71 C 674.18 835.04 675.49 834.33 676.85 833.70 C 678.11 833.01 679.40 832.37 680.77 831.89 C 681.39 831.45 682.01 831.02 682.64 830.60 C 683.80 830.10 684.97 829.59 686.13 829.09 C 686.61 828.65 687.56 827.78 688.03 827.34 C 688.38 827.49 689.08 827.77 689.42 827.91 L 689.31 826.73 C 690.45 826.25 691.60 825.78 692.75 825.32 L 692.59 824.94 C 694.89 823.74 697.07 822.32 699.36 821.09 C 699.35 820.96 699.33 820.69 699.32 820.56 C 700.46 820.16 701.61 819.78 702.76 819.40 L 702.69 819.00 C 706.87 816.75 710.62 813.80 714.59 811.22 L 714.62 810.91 C 717.15 809.93 719.16 808.11 721.09 806.26 L 721.91 806.62 C 724.37 804.57 726.79 802.45 729.09 800.22 L 729.90 800.64 C 732.04 798.76 734.14 796.83 736.39 795.07 L 736.33 794.71 C 737.42 794.22 738.52 793.74 739.63 793.26 L 739.54 792.90 C 741.94 791.07 744.05 788.93 746.36 787.00 L 746.37 786.36 L 747.56 786.56 L 747.43 785.35 L 748.65 785.56 L 748.47 784.32 C 748.80 784.30 749.44 784.27 749.77 784.26 C 751.11 782.85 752.55 781.53 754.07 780.31 C 757.71 777.60 760.72 774.16 764.00 771.05 C 770.33 764.57 776.99 758.40 782.91 751.54 L 783.61 751.66 L 783.38 750.45 L 783.99 750.30 C 784.74 749.46 785.51 748.63 786.29 747.82 C 786.30 747.61 786.32 747.17 786.34 746.95 C 789.77 743.33 793.24 739.73 796.62 736.05 C 796.53 735.71 796.34 735.03 796.25 734.69 L 797.13 734.52 C 799.30 731.60 802.01 729.10 803.68 725.83 C 804.98 724.11 806.43 722.53 807.93 720.99 C 808.49 719.93 809.04 718.87 809.62 717.82 C 810.72 716.39 811.83 714.96 812.88 713.49 L 813.78 713.35 C 813.70 713.02 813.53 712.34 813.45 712.00 C 814.63 710.56 815.81 709.11 816.94 707.63 L 817.24 707.54 C 818.17 705.36 819.45 703.38 820.83 701.47 L 821.50 701.50 C 821.57 700.91 821.73 699.73 821.80 699.13 C 823.38 698.00 824.43 696.44 824.76 694.52 L 825.37 694.59 C 825.84 693.47 826.32 692.36 826.82 691.27 L 828.02 691.48 C 827.85 691.11 827.53 690.37 827.36 690.00 C 827.80 689.55 828.68 688.64 829.12 688.18 C 829.70 686.95 830.24 685.69 830.80 684.46 L 831.38 684.51 C 831.82 683.17 832.31 681.85 832.76 680.53 L 833.42 680.78 C 833.89 679.34 834.38 677.90 834.84 676.46 L 835.37 676.83 C 835.77 675.65 836.18 674.47 836.61 673.31 L 837.31 673.55 C 837.66 672.18 838.04 670.81 838.45 669.47 L 839.37 669.50 C 839.70 668.14 840.05 666.78 840.43 665.45 L 841.33 665.48 C 841.75 663.79 842.22 662.11 842.66 660.43 L 843.42 660.67 C 843.87 659.29 844.32 657.90 844.76 656.52 L 845.44 656.74 C 845.87 655.32 846.33 653.91 846.76 652.50 L 847.86 652.48 C 847.75 652.02 847.54 651.12 847.43 650.67 L 848.54 650.37 C 848.44 650.02 848.24 649.32 848.14 648.97 C 848.52 648.51 849.28 647.58 849.66 647.11 C 850.77 643.62 851.75 640.02 853.67 636.87 C 853.66 636.69 853.64 636.34 853.63 636.17 C 854.01 634.93 854.39 633.71 854.78 632.48 L 855.52 632.65 C 855.88 630.87 856.27 629.10 856.60 627.33 L 857.33 627.52 C 857.82 625.11 858.19 622.53 860.09 620.77 C 860.21 619.29 860.29 617.79 860.41 616.33 L 861.61 616.35 C 861.57 616.07 861.49 615.49 861.45 615.20 C 862.06 612.95 862.06 610.27 864.07 608.72 C 864.23 606.91 864.33 605.10 864.46 603.30 L 865.62 603.45 C 865.59 603.09 865.52 602.37 865.49 602.01 C 866.00 599.80 866.38 597.56 866.63 595.32 L 867.91 595.40 C 867.80 595.13 867.58 594.58 867.47 594.30 C 868.01 591.99 868.39 589.65 868.60 587.29 L 869.81 587.45 C 869.65 586.98 869.33 586.02 869.18 585.55 L 870.21 585.46 C 870.24 583.08 870.33 580.71 870.46 578.34 L 871.72 578.50 C 871.67 578.14 871.55 577.43 871.50 577.07 C 872.18 574.21 872.43 571.28 872.54 568.36 L 873.82 568.51 C 873.73 568.15 873.55 567.43 873.46 567.07 C 874.29 563.86 874.44 560.54 874.55 557.25 L 875.55 557.76 C 875.51 556.64 875.48 555.52 875.47 554.41 L 876.24 554.39 C 876.21 550.69 876.32 546.99 876.49 543.30 C 876.75 543.37 877.26 543.52 877.52 543.59 C 877.50 542.78 877.47 541.14 877.46 540.33 L 878.24 540.47 C 878.19 536.06 878.30 531.65 878.40 527.24 C 878.61 527.30 879.03 527.42 879.24 527.48 C 879.80 520.49 879.71 513.49 879.71 506.49 L 880.30 506.51 C 880.09 501.64 880.64 496.74 879.82 491.92 C 879.71 486.32 879.65 480.73 879.56 475.13 L 878.75 475.52 C 878.59 471.51 878.29 467.51 878.27 463.51 L 877.74 463.47 C 877.76 460.05 877.57 456.63 877.45 453.22 L 876.58 453.68 C 876.53 452.24 876.49 450.81 876.46 449.39 L 875.76 449.38 C 875.81 445.69 875.63 442.00 875.42 438.32 L 874.44 438.73 C 874.45 437.63 874.47 436.53 874.50 435.43 L 873.78 435.44 C 873.74 433.07 873.64 430.72 873.56 428.36 C 873.22 428.37 872.55 428.39 872.21 428.39 C 872.37 427.95 872.69 427.05 872.85 426.60 L 871.80 426.45 C 871.77 423.78 871.63 421.12 871.45 418.47 L 870.14 418.55 C 870.29 418.05 870.57 417.06 870.72 416.57 L 869.81 416.46 C 869.73 414.60 869.63 412.75 869.51 410.90 C 869.00 409.78 868.53 408.65 868.11 407.50 L 867.80 407.45 C 867.69 405.76 867.58 404.08 867.47 402.40 C 867.07 402.40 866.27 402.40 865.87 402.41 C 865.52 399.82 866.51 396.43 863.89 394.78 C 863.76 392.97 863.65 391.15 863.57 389.34 L 862.33 389.45 C 862.37 389.09 862.45 388.37 862.49 388.02 C 862.06 386.48 861.65 384.94 861.28 383.40 L 860.06 383.42 C 860.19 383.12 860.47 382.51 860.61 382.20 C 859.87 380.09 859.04 378.03 858.13 376.00 C 857.93 375.11 857.54 373.32 857.34 372.43 L 856.59 372.60 C 856.39 370.51 855.73 368.51 854.51 366.79 C 854.49 366.65 854.45 366.38 854.42 366.24 C 854.06 364.95 853.71 363.66 853.38 362.37 L 852.74 362.49 C 852.22 360.61 851.61 358.73 850.59 357.06 C 850.22 355.87 849.83 354.66 849.50 353.48 L 848.65 353.47 C 848.23 351.79 847.75 350.12 847.34 348.45 L 846.18 348.45 C 846.26 348.10 846.43 347.40 846.51 347.05 C 845.72 345.66 844.95 344.28 844.21 342.88 C 843.62 341.39 842.85 340.00 841.86 338.76 C 841.78 338.18 841.63 337.02 841.55 336.44 L 840.58 336.53 C 840.15 335.18 839.74 333.83 839.35 332.49 L 838.70 332.53 C 838.42 331.92 837.84 330.70 837.55 330.08 L 837.51 329.94 C 836.68 328.51 835.91 327.03 835.25 325.52 L 834.72 325.53 C 834.39 323.73 833.39 322.23 832.19 320.92 C 831.69 319.37 830.96 317.93 829.86 316.75 C 829.79 316.17 829.65 315.00 829.59 314.42 L 828.71 314.56 C 828.26 313.44 827.81 312.32 827.37 311.20 L 826.92 311.38 C 826.41 310.18 825.66 309.10 825.11 307.93 C 823.77 305.80 822.50 303.62 821.23 301.46 L 820.74 301.46 C 820.25 300.32 819.72 299.20 819.22 298.08 C 818.19 297.06 817.19 296.02 816.20 295.00 C 816.29 294.78 816.48 294.32 816.57 294.10 C 815.36 292.62 814.18 291.13 813.06 289.60 L 812.33 289.68 L 812.61 288.50 C 812.30 288.45 811.69 288.37 811.38 288.32 L 811.74 287.05 C 810.10 285.25 808.51 283.42 807.12 281.44 L 806.96 281.40 C 805.73 278.47 803.28 276.36 801.76 273.61 C 801.59 273.55 801.24 273.43 801.06 273.37 C 799.62 270.37 797.12 268.14 795.10 265.56 L 794.69 265.60 C 794.22 264.49 793.75 263.38 793.30 262.28 L 792.94 262.39 C 789.92 258.55 786.12 255.43 783.13 251.57 L 783.01 251.40 C 781.94 250.14 780.84 248.92 779.70 247.74 C 779.69 247.44 779.68 246.82 779.68 246.52 L 778.39 246.67 L 778.57 245.89 C 778.23 245.51 777.53 244.76 777.19 244.38 L 776.93 244.40 C 772.10 239.03 766.96 233.89 761.57 229.08 L 761.62 228.34 L 760.45 228.62 L 760.34 228.00 C 759.48 227.24 758.65 226.46 757.83 225.68 C 757.51 225.66 756.85 225.61 756.53 225.59 L 756.67 224.78 C 756.28 224.45 755.48 223.79 755.09 223.47 L 754.35 223.69 L 754.35 222.96 C 751.11 220.24 748.19 217.18 745.08 214.33 C 744.86 214.32 744.41 214.28 744.18 214.26 C 741.27 211.92 738.49 209.42 735.61 207.04 L 735.45 206.33 C 735.14 206.31 734.51 206.27 734.20 206.26 C 732.06 204.46 729.84 202.75 727.59 201.09 L 727.69 200.33 L 726.51 200.61 C 726.46 200.30 726.36 199.68 726.32 199.37 L 725.03 199.73 C 723.14 197.87 721.15 196.04 718.66 195.02 L 718.55 194.81 C 716.96 193.77 715.47 192.62 713.99 191.45 C 713.66 191.52 712.98 191.67 712.65 191.74 L 712.55 190.83 C 710.65 189.44 708.74 188.05 706.60 187.04 L 706.75 186.23 L 705.83 186.66 C 705.38 186.21 704.48 185.31 704.03 184.85 C 702.87 184.28 701.68 183.70 700.53 183.15 L 700.56 182.72 C 698.89 181.79 697.28 180.81 695.63 179.88 L 695.48 179.91 C 695.08 179.63 694.27 179.07 693.87 178.80 C 693.38 178.45 692.40 177.76 691.91 177.42 C 691.57 177.56 690.88 177.84 690.54 177.98 L 690.68 176.94 C 690.20 176.60 689.25 175.94 688.78 175.61 C 688.46 175.64 687.82 175.72 687.51 175.75 L 687.52 174.80 C 685.83 174.43 684.25 173.75 683.07 172.46 C 682.60 172.37 681.66 172.18 681.19 172.08 C 680.05 171.26 678.88 170.51 677.67 169.82 L 677.46 169.46 C 677.15 169.52 676.52 169.63 676.21 169.68 L 676.38 168.83 C 675.77 168.52 674.56 167.90 673.95 167.58 C 673.60 167.65 672.92 167.77 672.57 167.84 L 672.40 166.65 C 671.24 166.22 670.12 165.78 668.98 165.35 C 667.73 164.77 666.47 164.23 665.21 163.71 C 663.88 162.98 662.52 162.32 661.14 161.76 C 659.73 160.98 658.34 160.18 656.95 159.41 C 656.61 159.51 655.93 159.73 655.59 159.83 L 655.57 158.73 C 654.30 158.33 653.04 157.91 651.79 157.48 C 651.50 157.55 650.93 157.68 650.64 157.74 L 650.57 156.66 C 648.49 156.37 646.56 155.58 644.91 154.29 C 644.73 154.31 644.37 154.34 644.20 154.35 C 642.94 153.95 641.69 153.57 640.45 153.20 L 640.48 152.05 C 640.13 152.19 639.44 152.47 639.10 152.61 C 637.66 151.85 636.21 151.15 634.81 150.33 C 634.69 150.38 634.43 150.46 634.30 150.50 C 633.01 150.06 631.72 149.64 630.43 149.23 L 630.44 148.19 C 630.16 148.24 629.59 148.36 629.30 148.42 C 627.64 148.07 625.97 147.69 624.31 147.41 L 624.37 146.29 C 624.10 146.35 623.56 146.46 623.29 146.51 C 621.62 146.10 619.95 145.70 618.29 145.34 L 618.61 144.76 C 617.35 144.43 616.10 144.08 614.87 143.72 C 614.23 143.68 612.96 143.58 612.33 143.54 L 612.42 142.29 C 612.14 142.34 611.58 142.43 611.30 142.48 C 609.33 142.04 607.36 141.65 605.38 141.34 L 605.41 140.06 C 604.97 140.26 604.08 140.65 603.64 140.85 C 603.59 140.58 603.51 140.06 603.46 139.79 C 601.43 139.71 599.41 139.59 597.39 139.47 L 597.52 138.12 C 597.03 138.27 596.05 138.57 595.56 138.72 L 595.51 137.87 C 592.71 137.90 590.04 137.16 587.45 136.18 L 587.46 135.78 C 585.09 135.72 582.72 135.58 580.37 135.43 C 580.39 135.03 580.43 134.22 580.45 133.82 C 577.39 133.78 574.34 133.69 571.29 133.58 C 571.37 133.36 571.53 132.91 571.61 132.69 C 569.69 132.46 567.79 132.21 565.91 131.84 C 563.04 131.74 560.17 131.63 557.31 131.48 L 557.71 130.50 C 556.79 130.49 555.87 130.47 554.96 130.45 C 550.08 129.46 545.10 129.76 540.17 129.59 L 540.42 128.73 C 533.98 128.36 527.53 128.29 521.09 128.18 C 509.61 127.13 498.02 128.03 486.50 127.70 L 486.46 128.29 C 480.78 128.21 475.10 128.36 469.43 128.58 C 469.49 128.81 469.60 129.27 469.65 129.50 C 464.76 129.77 459.82 129.39 454.99 130.37 Z" />
</svg>
