<svg width="24" height="24" viewBox="0 0 24 24" fill="none" xmlns="http://www.w3.org/2000/svg">
  <circle cx="12" cy="12" r="11" fill="#0a1628"/>
  <path d="M11 17a1 1 0 0 1-1-1 1 1 0 0 1 1-1h1a1 1 0 0 1 1 1 1 1 0 0 1-1 1h-1z" stroke="#d4a853" stroke-width="1.2" fill="none"/>
  <path d="M14 14a1 1 0 0 1-1-1 1 1 0 0 1 1-1h1a1 1 0 0 1 1 1 1 1 0 0 1-1 1h-1z" stroke="#d4a853" stroke-width="1.2" fill="none"/>
  <path d="M8 14a1 1 0 0 1-1-1 1 1 0 0 1 1-1h1a1 1 0 0 1 1 1 1 1 0 0 1-1 1H8z" stroke="#d4a853" stroke-width="1.2" fill="none"/>
  <path d="M11 11a1 1 0 0 1-1-1 1 1 0 0 1 1-1h1a1 1 0 0 1 1 1 1 1 0 0 1-1 1h-1z" stroke="#d4a853" stroke-width="1.2" fill="none"/>
  <path d="M2 9l4-4 3 3 2-2 4 4" stroke="#d4a853" stroke-width="1.2" stroke-linecap="round" stroke-linejoin="round" fill="none"/>
  <path d="M22 9l-4-4-3 3" stroke="#d4a853" stroke-width="1.2" stroke-linecap="round" stroke-linejoin="round" fill="none"/>
</svg>
